<svg
  version="1.1"
  viewBox="5.46223 -72.487 22 38"
  xmlns="http://www.w3.org/2000/svg"
  xmlns:xlink="http://www.w3.org/1999/xlink"
><path
    d="M8.03516-34.5898c.70182 0 1.29622-.24349 1.7832-.730469l16.7148-16.3281c.300781-.300781.522787-.612305.666016-.93457 .143229-.322265.214844-.676759.214844-1.06348 0-.77344-.29362-1.43229-.880859-1.97656l-16.6934-16.3281c-.257813-.243489-.533529-.429687-.827148-.558594 -.29362-.128906-.619466-.193359-.977539-.193359 -.486979 0-.920246.111003-1.2998.333008 -.379557.222005-.683919.526367-.913086.913086 -.229167.386719-.34375.823569-.34375 1.31055 0 .6875.257813 1.29622.773438 1.82617l16.1348 15.7266v-2.0625l-16.1348 15.6836c-.515625.529948-.773438 1.14583-.773438 1.84766 0 .472656.114583.902343.34375 1.28906 .229167.386719.533529.691081.913086.913086 .379557.222005.812824.333008 1.2998.333008Z"
    transform="matrix(.997027 0 0 .997027 .064854 0)"
    fill="currentColor"
  /></svg>
