<svg fill="currentColor" xmlns="http://www.w3.org/2000/svg" viewBox="0 0 338 338">
  <path fill-rule="evenodd" d="M119.501 49.499L169 0l49.499 49.499h70.002v70.002L338 169l-49.499 49.499v70.002h-70.002L169 338l-49.499-49.499H49.499v-70.002L0 169l49.499-49.499V49.499h70.002zm49.639 18.525c-55.859 0-101.116 45.257-101.116 101.116 0 55.858 45.258 101.116 101.116 101.116s101.116-45.258 101.116-101.116c0-55.859-45.258-101.116-101.116-101.116zm32.618 68.498c7.217 0 13.047 5.83 13.047 13.047 0 7.217-5.83 13.047-13.047 13.047a13.033 13.033 0 0 1-13.047-13.047c0-7.217 5.83-13.047 13.047-13.047zm-65.236 0c7.217 0 13.047 5.83 13.047 13.047 0 7.217-5.83 13.047-13.047 13.047a13.033 13.033 0 0 1-13.047-13.047c0-7.217 5.83-13.047 13.047-13.047zm79.425 69.395c-11.62 13.944-28.663 21.936-46.807 21.936-18.144 0-35.187-7.992-46.807-21.936-5.545-6.646 4.485-14.964 10.03-8.359 9.133 10.968 22.506 17.207 36.777 17.207 14.27 0 27.644-6.28 36.777-17.206 5.463-6.606 15.534 1.712 10.03 8.358z"/>
</svg>